<?xml version="1.0" standalone="no"?><!DOCTYPE svg PUBLIC "-//W3C//DTD SVG 1.1//EN" "http://www.w3.org/Graphics/SVG/1.1/DTD/svg11.dtd"><svg t="1579766131954" class="icon" viewBox="0 0 1260 1024" version="1.1" xmlns="http://www.w3.org/2000/svg" p-id="4541" xmlns:xlink="http://www.w3.org/1999/xlink" width="246.09375" height="200"><defs><style type="text/css"></style></defs><path d="M1024 190.148923a399.438769 399.438769 0 0 1 97.831385 61.203692 392.428308 392.428308 0 0 1 74.436923 84.283077 394.397538 394.397538 0 0 1 47.261538 101.848616A389.986462 389.986462 0 0 1 1260.307692 551.384615a385.102769 385.102769 0 0 1-30.798769 153.521231 396.209231 396.209231 0 0 1-84.283077 125.243077 396.209231 396.209231 0 0 1-125.243077 84.283077A385.102769 385.102769 0 0 1 866.461538 945.230769a395.185231 395.185231 0 0 1-124.612923-20.007384A380.928 380.928 0 0 1 630.153846 866.461538l-157.538461 157.538462-472.615385-472.615385 551.384615-551.384615h472.615385z m-551.384615 722.471385l472.615384-472.615385V246.153846a173.292308 173.292308 0 0 0-27.096615-3.387077l-33.555692-1.811692q-17.565538-0.945231-34.737231-2.756923a148.322462 148.322462 0 0 1-31.113846-6.459077 60.731077 60.731077 0 0 1-22.449231-12.603077A28.750769 28.750769 0 0 1 787.692308 196.923077a37.888 37.888 0 0 1 11.657846-27.726769A37.888 37.888 0 0 1 827.076923 157.538462q30.168615 0 59.392 0.630153A289.870769 289.870769 0 0 1 945.230769 165.415385V78.769231H583.995077l-472.615385 472.615384zM866.461538 866.461538a303.340308 303.340308 0 0 0 122.486154-24.891076 321.457231 321.457231 0 0 0 100.036923-67.66277 321.457231 321.457231 0 0 0 67.66277-100.036923A303.340308 303.340308 0 0 0 1181.538462 551.384615a305.230769 305.230769 0 0 0-11.106462-81.84123 325.080615 325.080615 0 0 0-31.507692-75.382154 315.076923 315.076923 0 0 0-49.545846-64.905846 308.381538 308.381538 0 0 0-65.378462-50.491077V472.615385l-337.211077 337.211077a307.830154 307.830154 0 0 0 85.149539 42.141538A313.107692 313.107692 0 0 0 866.461538 866.461538z" fill="#333333" p-id="4542"></path></svg>